<svg width="32" height="32" fill="none" xmlns="http://www.w3.org/2000/svg"><path d="M22.333 4.747v-2.08c0-.547-.453-1-1-1-.546 0-1 .453-1 1v2h-8.666v-2c0-.547-.454-1-1-1-.547 0-1 .453-1 1v2.08c-3.6.333-5.347 2.48-5.614 5.666a.67.67 0 0 0 .667.707h22.56c.387 0 .707-.333.667-.707-.267-3.186-2.014-5.333-5.614-5.666ZM26.667 13.12H5.333C4.6 13.12 4 13.72 4 14.453v8.213c0 4 2 6.667 6.667 6.667h10.666C26 29.333 28 26.667 28 22.667v-8.214c0-.733-.6-1.333-1.333-1.333ZM12.28 24.28c-.067.053-.133.12-.2.16-.08.053-.16.093-.24.12a.85.85 0 0 1-.24.08c-.093.013-.173.026-.267.026-.173 0-.346-.04-.506-.106a1.376 1.376 0 0 1-.44-.28c-.24-.254-.387-.6-.387-.947 0-.346.147-.693.387-.946.133-.12.266-.214.44-.28.24-.107.506-.134.773-.08.08.013.16.04.24.08.08.026.16.066.24.12l.2.16c.24.253.387.6.387.946 0 .347-.147.694-.387.947Zm0-4.667c-.253.24-.6.387-.947.387-.346 0-.693-.147-.946-.387-.24-.253-.387-.6-.387-.947 0-.346.147-.693.387-.946.373-.373.96-.493 1.453-.28.173.066.32.16.44.28.24.253.387.6.387.947 0 .346-.147.693-.387.946Zm4.667 4.667c-.254.24-.6.386-.947.386s-.693-.146-.947-.386c-.24-.254-.386-.6-.386-.947 0-.346.146-.693.386-.946.494-.494 1.4-.494 1.894 0 .24.253.386.6.386.946 0 .347-.146.694-.386.947Zm0-4.667-.2.16c-.08.053-.16.093-.24.12a.846.846 0 0 1-.24.08c-.094.014-.174.027-.267.027-.347 0-.693-.147-.947-.387-.24-.253-.386-.6-.386-.947 0-.346.146-.693.386-.946.12-.12.267-.213.44-.28a1.332 1.332 0 0 1 1.454.28c.24.253.386.6.386.947 0 .346-.146.693-.386.946Zm4.666 4.667c-.253.24-.6.386-.946.386-.347 0-.694-.146-.947-.386-.24-.254-.387-.6-.387-.947 0-.346.147-.693.387-.946.493-.494 1.4-.494 1.893 0 .24.253.387.6.387.946 0 .347-.147.694-.387.947Zm0-4.667-.2.16c-.08.053-.16.093-.24.12a.846.846 0 0 1-.24.08c-.093.014-.186.027-.266.027-.347 0-.694-.147-.947-.387-.24-.253-.387-.6-.387-.947 0-.346.147-.693.387-.946.133-.12.267-.213.44-.28.24-.107.507-.134.773-.08.08.013.16.04.24.08.08.026.16.066.24.12l.2.16c.24.253.387.6.387.947 0 .346-.147.693-.387.946Z" fill="#fff"/></svg>