<svg width="32" height="32" fill="none" xmlns="http://www.w3.org/2000/svg"><path d="M29.227 22.333c-.44 3.547-3.347 6.454-6.893 6.894a7.918 7.918 0 0 1-5.707-1.467c-.893-.654-.68-2.04.387-2.36 4.013-1.213 7.173-4.387 8.4-8.4.32-1.053 1.706-1.267 2.36-.387a8.026 8.026 0 0 1 1.453 5.72Z" fill="#fff"/><path d="M13.32 2.667C7.44 2.667 2.667 7.44 2.667 13.32c0 5.88 4.773 10.653 10.653 10.653 5.88 0 10.653-4.773 10.653-10.653C23.96 7.44 19.2 2.667 13.32 2.667Zm-1.253 9.16 3.213 1.12c1.16.413 1.72 1.226 1.72 2.48 0 1.44-1.147 2.626-2.547 2.626h-.12v.067c0 .547-.453 1-1 1-.546 0-1-.453-1-1v-.08c-1.48-.067-2.666-1.307-2.666-2.853 0-.547.453-1 1-1 .546 0 1 .453 1 1 0 .48.346.866.773.866h2c.307 0 .547-.28.547-.626 0-.467-.08-.494-.387-.6l-3.213-1.12c-1.147-.4-1.72-1.214-1.72-2.48 0-1.44 1.146-2.627 2.546-2.627h.12v-.053c0-.547.454-1 1-1 .547 0 1 .453 1 1v.08C15.813 8.693 17 9.933 17 11.48c0 .547-.453 1-1 1-.547 0-1-.453-1-1 0-.48-.347-.867-.773-.867h-2c-.307 0-.547.28-.547.627-.013.453.067.48.387.587Z" fill="#fff"/></svg>